<?xml version="1.0" standalone="no"?>
<!DOCTYPE svg PUBLIC "-//W3C//DTD SVG 20010904//EN"
 "http://www.w3.org/TR/2001/REC-SVG-20010904/DTD/svg10.dtd">
<svg version="1.0" xmlns="http://www.w3.org/2000/svg"
 width="512.000000pt" height="512.000000pt" viewBox="0 0 512.000000 512.000000"
 preserveAspectRatio="xMidYMid meet">

<g transform="translate(0.000000,512.000000) scale(0.100000,-0.100000)"
fill="#000000" stroke="none">
<path d="M2485 4550 c-225 -31 -405 -184 -481 -410 -26 -77 -26 -253 0 -330
45 -131 112 -226 212 -298 l64 -47 -212 -5 c-198 -5 -218 -8 -286 -32 -110
-40 -178 -84 -273 -178 -143 -143 -140 -132 -335 -955 -91 -385 -195 -823
-230 -974 -76 -321 -81 -350 -64 -433 30 -153 125 -259 275 -305 57 -17 130
-18 1410 -18 l1350 0 64 23 c74 27 137 67 175 113 65 77 103 201 92 298 -4 30
-110 492 -237 1026 -267 1127 -251 1078 -398 1225 -95 94 -163 138 -273 178
-68 24 -88 27 -286 32 l-212 5 64 47 c100 72 167 167 212 298 30 87 26 263 -8
352 -38 101 -86 173 -156 238 -125 116 -302 172 -467 150z m192 -346 c157 -75
190 -286 65 -412 -51 -50 -105 -72 -183 -72 -179 0 -303 172 -244 341 30 84
92 140 185 166 57 15 111 8 177 -23z m78 -1438 c87 -23 231 -97 302 -156 67
-55 157 -167 193 -240 111 -221 114 -483 8 -695 -138 -275 -394 -435 -698
-435 -305 0 -560 160 -700 439 -51 101 -72 199 -73 331 -1 139 17 218 78 345
106 220 319 381 563 425 68 13 257 4 327 -14z"/>
<path d="M2110 2380 c-19 -19 -20 -33 -20 -300 0 -267 1 -281 20 -300 25 -25
72 -26 93 -2 13 14 17 38 17 98 l1 79 93 -97 c77 -82 98 -98 123 -98 37 0 63
27 63 66 0 22 -17 46 -81 110 l-81 81 74 53 c82 59 98 76 98 102 0 25 -44 68
-68 68 -11 0 -62 -34 -113 -75 -52 -41 -97 -75 -101 -75 -5 0 -8 62 -8 138 0
122 -2 141 -18 155 -25 23 -68 21 -92 -3z"/>
<path d="M2701 2226 c-48 -17 -108 -71 -133 -119 -30 -58 -30 -157 -1 -212 62
-117 188 -167 287 -114 21 11 40 18 43 15 12 -12 -11 -68 -39 -91 -40 -34 -99
-34 -153 0 -61 37 -100 33 -124 -13 -33 -62 52 -131 169 -140 119 -8 208 38
255 131 25 50 25 54 25 283 l0 233 -26 20 c-35 27 -61 26 -86 -2 l-20 -23 -46
23 c-50 25 -99 28 -151 9z m139 -133 c52 -36 68 -84 46 -137 -18 -42 -51 -66
-94 -66 -67 0 -111 42 -112 106 0 87 93 144 160 97z"/>
</g>
</svg>
